<?xml version="1.0" standalone="no"?>
<!DOCTYPE svg PUBLIC "-//W3C//DTD SVG 20010904//EN"
 "http://www.w3.org/TR/2001/REC-SVG-20010904/DTD/svg10.dtd">
<svg version="1.0" xmlns="http://www.w3.org/2000/svg"
 width="464.000000pt" height="600.000000pt" viewBox="0 0 464.000000 600.000000"
 preserveAspectRatio="xMidYMid meet">

<g transform="translate(0.000000,600.000000) scale(0.100000,-0.100000)"
fill="#000000" stroke="none">
<path d="M4 5248 c4 -414 9 -782 11 -818 2 -36 6 -238 10 -450 3 -212 10 -657
15 -990 10 -656 21 -2058 20 -2632 l0 -358 2290 0 2289 0 1 3000 0 3000 -2321
0 -2322 0 7 -752z m1896 -404 c63 -8 147 -23 185 -32 85 -20 225 -21 280 -2
36 12 94 17 245 22 146 5 378 -76 453 -157 45 -50 51 -58 82 -122 17 -35 36
-63 43 -63 14 0 16 -16 4 -24 -5 -3 -3 -45 3 -93 7 -48 10 -96 7 -105 -2 -10
1 -18 7 -18 6 0 11 -9 11 -19 0 -11 4 -22 9 -25 5 -3 15 -30 21 -58 7 -29 16
-55 20 -58 13 -9 22 -70 11 -70 -12 0 -4 -48 10 -64 5 -6 9 -17 9 -26 0 -9 5
-21 12 -28 13 -13 13 -13 24 -125 10 -112 15 -116 103 -87 67 21 72 21 96 6
30 -20 32 -36 4 -36 -28 0 -19 -24 12 -29 33 -4 36 -11 37 -99 2 -80 -9 -152
-33 -212 -8 -19 -21 -70 -30 -113 -8 -43 -24 -97 -34 -120 -11 -23 -22 -56
-26 -73 -8 -40 -48 -75 -95 -81 -47 -7 -73 16 -63 55 6 24 4 25 -10 14 -8 -7
-15 -21 -15 -30 0 -9 -10 -39 -22 -67 -13 -27 -25 -60 -26 -73 -2 -13 -12 -38
-23 -55 -11 -18 -32 -56 -45 -85 -14 -29 -43 -72 -66 -95 -22 -23 -40 -51 -40
-61 0 -11 -3 -16 -6 -13 -4 4 -24 -7 -44 -23 -21 -17 -47 -30 -58 -30 -12 0
-24 -5 -27 -10 -3 -6 -26 -19 -49 -30 -24 -10 -51 -31 -60 -45 -9 -14 -23 -25
-31 -25 -7 0 -22 -10 -32 -22 -27 -33 -164 -95 -184 -83 -5 4 -9 2 -9 -2 0 -5
-8 -9 -17 -10 -10 0 -40 -6 -68 -13 -88 -22 -284 -10 -435 27 -37 9 -90 33
-124 55 -32 21 -60 38 -62 38 -2 0 -23 20 -47 45 -24 25 -48 45 -52 45 -4 0
-25 16 -46 35 -22 19 -43 35 -48 35 -13 0 -103 119 -96 129 3 5 1 12 -5 16 -5
3 -19 27 -30 53 -12 26 -25 55 -30 64 -6 10 -10 29 -10 42 0 14 -4 27 -9 30
-5 3 -11 20 -14 38 -5 34 -25 112 -34 138 -3 8 -7 21 -9 29 -1 8 -10 21 -19
30 -15 15 -16 14 -10 -10 14 -57 -94 -83 -139 -34 -22 24 -55 105 -78 190 -14
54 -41 136 -72 218 -26 68 -33 148 -20 217 7 30 9 31 43 26 l36 -7 -25 20
c-13 11 -28 17 -32 15 -15 -9 -8 19 9 38 21 23 56 23 128 -2 31 -11 61 -18 65
-15 5 3 11 33 15 67 4 35 11 70 16 79 4 9 15 47 24 85 8 38 23 101 32 139 11
49 17 128 18 265 3 211 -3 187 66 307 34 59 89 117 145 152 57 37 99 39 274
15z m-298 -2445 c13 -17 35 -44 51 -61 15 -16 27 -33 27 -37 0 -4 15 -22 34
-39 19 -17 38 -37 43 -44 17 -26 120 -106 170 -131 28 -14 72 -29 98 -32 25
-4 48 -11 51 -16 3 -5 62 -9 132 -9 75 0 149 -6 180 -14 29 -7 52 -10 52 -6 0
4 31 8 68 8 37 1 81 6 97 12 85 32 203 90 216 107 7 7 17 13 23 13 12 0 117
75 126 90 14 23 86 70 106 70 20 0 24 -5 25 -32 2 -141 6 -215 11 -228 4 -8 6
-22 6 -30 0 -57 19 -83 53 -76 30 6 144 -36 189 -69 8 -7 34 -17 56 -23 23 -7
48 -19 55 -28 28 -34 -37 -157 -189 -359 -111 -147 -159 -202 -331 -385 -221
-234 -256 -268 -346 -338 -44 -34 -84 -66 -90 -70 -32 -25 -170 -110 -241
-148 l-83 -45 -53 27 c-128 64 -327 231 -441 369 -45 55 -252 324 -282 367
-32 45 -125 198 -125 205 0 2 -15 27 -33 56 -63 100 -117 251 -119 333 -1 59
24 83 116 114 38 12 83 31 100 41 17 10 37 19 45 19 15 0 131 98 129 108 -1 4
2 59 6 122 8 121 21 190 36 190 4 0 19 -14 32 -31z"/>
<path d="M1767 4095 c-29 -28 -20 -37 36 -34 28 1 65 -1 81 -6 20 -5 31 -4 36
6 13 20 4 27 -46 35 -34 5 -48 3 -55 -7 -7 -11 -11 -10 -22 5 -12 17 -14 17
-30 1z"/>
<path d="M2753 4102 c-26 -4 -29 -12 -11 -30 15 -15 84 -16 93 -2 3 6 16 10
28 10 19 1 20 2 5 10 -19 12 -82 18 -115 12z"/>
<path d="M3177 4062 c-22 -5 -16 -28 7 -26 11 1 16 -6 16 -22 0 -28 17 -41 33
-25 9 9 8 15 -6 22 -9 6 -15 14 -12 20 9 14 -17 35 -38 31z"/>
<path d="M2802 3890 c-50 -12 -54 -20 -37 -71 23 -66 37 -80 83 -82 46 -1 68
13 87 60 8 18 18 33 22 33 5 0 26 -18 47 -40 21 -22 41 -40 46 -40 12 0 40 29
40 42 0 18 -55 75 -69 70 -7 -2 -31 3 -54 11 -55 20 -124 27 -165 17z"/>
<path d="M1715 3875 c-22 -6 -47 -15 -55 -18 -9 -4 -27 -6 -40 -5 -19 2 -26
-3 -33 -29 -18 -61 30 -84 74 -37 44 47 57 49 73 10 20 -47 57 -70 100 -62 41
8 48 16 69 80 16 46 16 50 -1 62 -21 16 -131 16 -187 -1z"/>
<path d="M3326 3212 c-4 -13 -5 -26 -2 -29 3 -4 1 -12 -5 -20 -6 -7 -7 -13 -2
-13 5 0 16 9 26 20 9 11 13 20 8 20 -5 0 -11 10 -13 23 l-4 22 -8 -23z"/>
<path d="M3319 3135 c-1 -3 -2 -8 -3 -12 -1 -5 -5 -14 -10 -21 -5 -8 -4 -18 3
-25 6 -6 11 -9 12 -6 6 44 8 69 4 69 -3 0 -6 -2 -6 -5z"/>
<path d="M3285 3040 c-3 -5 1 -10 9 -10 8 0 18 5 21 10 3 6 -1 10 -9 10 -8 0
-18 -4 -21 -10z"/>
<path d="M2030 2871 c-82 -9 -99 -18 -71 -37 17 -12 40 -13 151 -2 71 7 130
15 130 19 0 18 -119 29 -210 20z"/>
<path d="M2510 2859 c-25 -4 -79 -5 -121 -2 -54 4 -78 2 -84 -6 -13 -22 5 -26
128 -27 67 -1 165 -5 217 -9 83 -7 97 -6 109 9 9 10 11 20 5 26 -12 12 -197
19 -254 9z"/>
</g>
</svg>
